<?xml version="1.0" encoding="utf-8"?>
<svg xmlns="http://www.w3.org/2000/svg" xmlns:xlink="http://www.w3.org/1999/xlink" style="margin: auto; background: rgb(255, 255, 255); display: block; shape-rendering: auto;" width="100%" height="100%" viewBox="0 0 100 100" preserveAspectRatio="xMidYMid">
<g transform="rotate(0 50 50)">
  <rect x="47" y="24.5" rx="0" ry="0" width="6" height="19" fill="#00262c">
    <animate attributeName="opacity" values="1;0" keyTimes="0;1" dur="0.5319148936170213s" begin="-0.5023640661938534s" repeatCount="indefinite"></animate>
  </rect>
</g><g transform="rotate(20 50 50)">
  <rect x="47" y="24.5" rx="0" ry="0" width="6" height="19" fill="#00262c">
    <animate attributeName="opacity" values="1;0" keyTimes="0;1" dur="0.5319148936170213s" begin="-0.47281323877068554s" repeatCount="indefinite"></animate>
  </rect>
</g><g transform="rotate(40 50 50)">
  <rect x="47" y="24.5" rx="0" ry="0" width="6" height="19" fill="#00262c">
    <animate attributeName="opacity" values="1;0" keyTimes="0;1" dur="0.5319148936170213s" begin="-0.4432624113475177s" repeatCount="indefinite"></animate>
  </rect>
</g><g transform="rotate(60 50 50)">
  <rect x="47" y="24.5" rx="0" ry="0" width="6" height="19" fill="#00262c">
    <animate attributeName="opacity" values="1;0" keyTimes="0;1" dur="0.5319148936170213s" begin="-0.4137115839243498s" repeatCount="indefinite"></animate>
  </rect>
</g><g transform="rotate(80 50 50)">
  <rect x="47" y="24.5" rx="0" ry="0" width="6" height="19" fill="#00262c">
    <animate attributeName="opacity" values="1;0" keyTimes="0;1" dur="0.5319148936170213s" begin="-0.384160756501182s" repeatCount="indefinite"></animate>
  </rect>
</g><g transform="rotate(100 50 50)">
  <rect x="47" y="24.5" rx="0" ry="0" width="6" height="19" fill="#00262c">
    <animate attributeName="opacity" values="1;0" keyTimes="0;1" dur="0.5319148936170213s" begin="-0.35460992907801414s" repeatCount="indefinite"></animate>
  </rect>
</g><g transform="rotate(120 50 50)">
  <rect x="47" y="24.5" rx="0" ry="0" width="6" height="19" fill="#00262c">
    <animate attributeName="opacity" values="1;0" keyTimes="0;1" dur="0.5319148936170213s" begin="-0.3250591016548463s" repeatCount="indefinite"></animate>
  </rect>
</g><g transform="rotate(140 50 50)">
  <rect x="47" y="24.5" rx="0" ry="0" width="6" height="19" fill="#00262c">
    <animate attributeName="opacity" values="1;0" keyTimes="0;1" dur="0.5319148936170213s" begin="-0.29550827423167847s" repeatCount="indefinite"></animate>
  </rect>
</g><g transform="rotate(160 50 50)">
  <rect x="47" y="24.5" rx="0" ry="0" width="6" height="19" fill="#00262c">
    <animate attributeName="opacity" values="1;0" keyTimes="0;1" dur="0.5319148936170213s" begin="-0.26595744680851063s" repeatCount="indefinite"></animate>
  </rect>
</g><g transform="rotate(180 50 50)">
  <rect x="47" y="24.5" rx="0" ry="0" width="6" height="19" fill="#00262c">
    <animate attributeName="opacity" values="1;0" keyTimes="0;1" dur="0.5319148936170213s" begin="-0.23640661938534277s" repeatCount="indefinite"></animate>
  </rect>
</g><g transform="rotate(200 50 50)">
  <rect x="47" y="24.5" rx="0" ry="0" width="6" height="19" fill="#00262c">
    <animate attributeName="opacity" values="1;0" keyTimes="0;1" dur="0.5319148936170213s" begin="-0.2068557919621749s" repeatCount="indefinite"></animate>
  </rect>
</g><g transform="rotate(220 50 50)">
  <rect x="47" y="24.5" rx="0" ry="0" width="6" height="19" fill="#00262c">
    <animate attributeName="opacity" values="1;0" keyTimes="0;1" dur="0.5319148936170213s" begin="-0.17730496453900707s" repeatCount="indefinite"></animate>
  </rect>
</g><g transform="rotate(240 50 50)">
  <rect x="47" y="24.5" rx="0" ry="0" width="6" height="19" fill="#00262c">
    <animate attributeName="opacity" values="1;0" keyTimes="0;1" dur="0.5319148936170213s" begin="-0.14775413711583923s" repeatCount="indefinite"></animate>
  </rect>
</g><g transform="rotate(260 50 50)">
  <rect x="47" y="24.5" rx="0" ry="0" width="6" height="19" fill="#00262c">
    <animate attributeName="opacity" values="1;0" keyTimes="0;1" dur="0.5319148936170213s" begin="-0.11820330969267138s" repeatCount="indefinite"></animate>
  </rect>
</g><g transform="rotate(280 50 50)">
  <rect x="47" y="24.5" rx="0" ry="0" width="6" height="19" fill="#00262c">
    <animate attributeName="opacity" values="1;0" keyTimes="0;1" dur="0.5319148936170213s" begin="-0.08865248226950354s" repeatCount="indefinite"></animate>
  </rect>
</g><g transform="rotate(300 50 50)">
  <rect x="47" y="24.5" rx="0" ry="0" width="6" height="19" fill="#00262c">
    <animate attributeName="opacity" values="1;0" keyTimes="0;1" dur="0.5319148936170213s" begin="-0.05910165484633569s" repeatCount="indefinite"></animate>
  </rect>
</g><g transform="rotate(320 50 50)">
  <rect x="47" y="24.5" rx="0" ry="0" width="6" height="19" fill="#00262c">
    <animate attributeName="opacity" values="1;0" keyTimes="0;1" dur="0.5319148936170213s" begin="-0.029550827423167846s" repeatCount="indefinite"></animate>
  </rect>
</g><g transform="rotate(340 50 50)">
  <rect x="47" y="24.5" rx="0" ry="0" width="6" height="19" fill="#00262c">
    <animate attributeName="opacity" values="1;0" keyTimes="0;1" dur="0.5319148936170213s" begin="0s" repeatCount="indefinite"></animate>
  </rect>
</g>
<!-- [ldio] generated by https://loading.io/ --></svg>